<?xml version="1.0" encoding="UTF-8" standalone="no"?>
<svg
   xmlns:dc="http://purl.org/dc/elements/1.1/"
   xmlns:cc="http://creativecommons.org/ns#"
   xmlns:rdf="http://www.w3.org/1999/02/22-rdf-syntax-ns#"
   xmlns:svg="http://www.w3.org/2000/svg"
   xmlns="http://www.w3.org/2000/svg"
   xmlns:sodipodi="http://sodipodi.sourceforge.net/DTD/sodipodi-0.dtd"
   xmlns:inkscape="http://www.inkscape.org/namespaces/inkscape"
   version="1.1"
   id="svg2"
   xml:space="preserve"
   width="208.22667"
   height="73.333336"
   viewBox="0 0 208.22667 73.333336"
   sodipodi:docname="ENS_NEG_UK.eps"><metadata
     id="metadata8"><rdf:RDF><cc:Work
         rdf:about=""><dc:format>image/svg+xml</dc:format><dc:type
           rdf:resource="http://purl.org/dc/dcmitype/StillImage" /></cc:Work></rdf:RDF></metadata><defs
     id="defs6" /><sodipodi:namedview
     pagecolor="#ffffff"
     bordercolor="#666666"
     borderopacity="1"
     objecttolerance="10"
     gridtolerance="10"
     guidetolerance="10"
     inkscape:pageopacity="0"
     inkscape:pageshadow="2"
     inkscape:window-width="640"
     inkscape:window-height="480"
     id="namedview4" /><g
     id="g10"
     inkscape:groupmode="layer"
     inkscape:label="ink_ext_XXXXXX"
     transform="matrix(1.3333333,0,0,-1.3333333,0,73.333333)"><g
       id="g12"
       transform="scale(0.1)"><path
         d="m 316.91,507.5 c 0,23.473 -19.027,42.5 -42.5,42.5 -23.472,0 -42.5,-19.027 -42.5,-42.5 0,-23.473 19.028,-42.5 42.5,-42.5 23.473,0 42.5,19.027 42.5,42.5"
         style="fill:#ffffff;fill-opacity:1;fill-rule:nonzero;stroke:none"
         id="path14" /><path
         d="m 316.91,42.5 c 0,23.4727 -19.027,42.5 -42.5,42.5 -23.472,0 -42.5,-19.0273 -42.5,-42.5 0,-23.4727 19.028,-42.5 42.5,-42.5 23.473,0 42.5,19.0273 42.5,42.5"
         style="fill:#ffffff;fill-opacity:1;fill-rule:nonzero;stroke:none"
         id="path16" /><path
         d="m 507.5,233.703 c 23.473,0 42.5,19.027 42.5,42.5 0,23.473 -19.027,42.5 -42.5,42.5 -23.473,0 -42.5,-19.027 -42.5,-42.5 0,-23.473 19.027,-42.5 42.5,-42.5"
         style="fill:#ffffff;fill-opacity:1;fill-rule:nonzero;stroke:none"
         id="path18" /><path
         d="m 42.5,233.703 c 23.4727,0 42.5,19.027 42.5,42.5 0,23.473 -19.0273,42.5 -42.5,42.5 -23.4727,0 -42.5,-19.027 -42.5,-42.5 0,-23.473 19.0273,-42.5 42.5,-42.5"
         style="fill:#ffffff;fill-opacity:1;fill-rule:nonzero;stroke:none"
         id="path20" /><path
         d="m 468.828,409.977 c 16.598,16.597 16.598,43.507 0,60.105 -16.598,16.594 -43.508,16.594 -60.101,0 -16.598,-16.598 -16.598,-43.508 0,-60.105 16.593,-16.598 43.503,-16.598 60.101,0"
         style="fill:#ffffff;fill-opacity:1;fill-rule:nonzero;stroke:none"
         id="path22" /><path
         d="m 140.023,81.1719 c 16.598,16.5976 16.598,43.5081 0,60.1011 -16.597,16.598 -43.5074,16.598 -60.105,0 -16.5938,-16.593 -16.5938,-43.5035 0,-60.1011 16.5976,-16.5977 43.508,-16.5977 60.105,0"
         style="fill:#ffffff;fill-opacity:1;fill-rule:nonzero;stroke:none"
         id="path24" /><path
         d="m 410.629,81.8242 c 16.598,-16.5976 43.504,-16.5976 60.101,0 16.598,16.5977 16.598,43.5038 0,60.1018 -16.597,16.597 -43.503,16.597 -60.101,0 -16.598,-16.598 -16.598,-43.5041 0,-60.1018"
         style="fill:#ffffff;fill-opacity:1;fill-rule:nonzero;stroke:none"
         id="path26" /><path
         d="m 81.8242,410.629 c 16.5977,-16.598 43.5038,-16.598 60.1018,0 16.597,16.598 16.597,43.504 0,60.101 -16.598,16.598 -43.5041,16.598 -60.1018,0 -16.5976,-16.597 -16.5976,-43.503 0,-60.101"
         style="fill:#ffffff;fill-opacity:1;fill-rule:nonzero;stroke:none"
         id="path28" /><path
         d="m 275.031,321.762 c -5.453,0 -9.875,4.429 -9.875,9.894 0,5.461 4.422,9.891 9.875,9.891 5.457,0 9.875,-4.43 9.875,-9.891 0,-5.465 -4.418,-9.894 -9.875,-9.894 z m 74.184,-11.727 c -2.551,17.684 -16.945,25.336 -35.043,25.336 -9.348,0 -17.402,-2.613 -23.762,-5.762 1.383,8.946 -5.152,15.914 -12.273,17.364 v 10.207 c 0,1.726 -1.399,3.125 -3.121,3.125 -1.727,0 -3.121,-1.399 -3.121,-3.125 v -10.207 c -7.125,-1.45 -13.661,-8.418 -12.278,-17.364 -6.355,3.149 -14.414,5.762 -23.762,5.762 -18.097,0 -32.492,-7.652 -35.039,-25.336 -17.398,-1.672 -26.664,-11.703 -25.738,-30.015 0.68,-13.567 17.754,-35.434 28.387,-47.801 h 8.262 c -13.008,14.504 -29.848,36.828 -30.418,48.113 -0.387,7.719 1.269,13.578 4.918,17.422 3.093,3.254 7.859,5.199 14.023,5.957 -0.023,-1.727 -0.105,-3.41 0.063,-5.281 0.679,-7.629 4.71,-17.254 9.937,-26.883 2.09,-3.852 10.559,-19 26.34,-39.328 h 7.863 c 0,0 -35.633,43.855 -37.898,66.621 -0.008,0.047 -5.434,30.285 29.3,30.285 21.895,0 36.04,-16.156 36.04,-16.156 v -80.75 h 6.242 v 80.75 c 0,0 14.144,16.156 36.035,16.156 34.734,0 29.308,-30.238 29.305,-30.285 -2.27,-22.766 -37.903,-66.621 -37.903,-66.621 h 7.864 c 15.781,20.328 24.25,35.476 26.339,39.328 5.231,9.629 9.258,19.254 9.942,26.883 0.168,1.871 0.086,3.554 0.058,5.281 6.168,-0.758 10.934,-2.703 14.028,-5.957 3.644,-3.844 5.3,-9.703 4.914,-17.422 -0.567,-11.285 -17.406,-33.609 -30.414,-48.113 h 8.258 c 10.632,12.367 27.707,34.234 28.386,47.801 0.926,18.312 -8.34,28.343 -25.734,30.015"
         style="fill:#ffffff;fill-opacity:1;fill-rule:nonzero;stroke:none"
         id="path30" /><path
         d="m 275.016,372.859 c 1.726,0 3.125,1.399 3.125,3.125 v 12.496 c 0,1.727 -1.399,3.125 -3.125,3.125 -1.731,0 -3.129,-1.398 -3.129,-3.125 v -12.496 c 0,-1.726 1.398,-3.125 3.129,-3.125"
         style="fill:#ffffff;fill-opacity:1;fill-rule:nonzero;stroke:none"
         id="path32" /><path
         d="m 253.137,363.453 h 12.508 c 1.73,0 3.128,1.395 3.128,3.121 0,1.727 -1.398,3.125 -3.128,3.125 h -12.508 c -1.727,0 -3.125,-1.398 -3.125,-3.125 0,-1.726 1.398,-3.121 3.125,-3.121"
         style="fill:#ffffff;fill-opacity:1;fill-rule:nonzero;stroke:none"
         id="path34" /><path
         d="m 284.383,363.453 h 12.508 c 1.726,0 3.125,1.395 3.125,3.121 0,1.727 -1.399,3.125 -3.125,3.125 h -12.508 c -1.731,0 -3.125,-1.398 -3.125,-3.125 0,-1.726 1.394,-3.121 3.125,-3.121"
         style="fill:#ffffff;fill-opacity:1;fill-rule:nonzero;stroke:none"
         id="path36" /><path
         d="m 203.141,204.102 h 143.75 v 6.246 h -143.75 v -6.246"
         style="fill:#ffffff;fill-opacity:1;fill-rule:nonzero;stroke:none"
         id="path38" /><path
         d="m 203.141,191.605 h 143.75 v 6.247 h -143.75 v -6.247"
         style="fill:#ffffff;fill-opacity:1;fill-rule:nonzero;stroke:none"
         id="path40" /><path
         d="m 203.141,222.844 v -6.246 h 143.75 v 6.246 h -143.75"
         style="fill:#ffffff;fill-opacity:1;fill-rule:nonzero;stroke:none"
         id="path42" /><path
         d="m 685.582,236.191 h 20.313 c 26.992,0 41.91,15.055 41.91,42.188 0,27.133 -14.918,42.191 -41.91,42.191 h -20.313 z m 20.313,92.762 c 32.96,0 51.71,-18.18 51.71,-50.574 0,-32.387 -18.75,-50.566 -51.71,-50.566 h -29.551 v 101.14 h 29.551"
         style="fill:#ffffff;fill-opacity:1;fill-rule:nonzero;stroke:none"
         id="path44" /><path
         d="m 818.785,264.457 c -6.105,-0.426 -14.918,-1.562 -21.023,-2.551 -14.489,-2.136 -19.176,-6.258 -19.176,-14.211 0,-8.379 6.25,-13.922 16.902,-13.922 6.676,0 12.645,2.274 16.621,6.391 4.832,5.117 6.676,9.094 6.676,18.758 z m 8.528,9.664 v -28.555 c 0,-7.386 0.707,-13.636 1.562,-17.753 h -8.242 c -0.707,3.402 -0.992,7.667 -0.992,10.933 h -0.282 c -4.695,-7.812 -13.074,-12.359 -25.714,-12.359 -14.778,0 -24.438,8.668 -24.438,20.742 0,11.793 6.68,18.891 27.422,22.156 6.676,1.141 15.766,2.137 22.156,2.563 v 3.406 c 0,13.496 -7.672,19.039 -18.465,19.039 -12.218,0 -18.328,-6.68 -18.89,-16.055 h -9.239 c 0.852,13.496 10.653,23.582 28.129,23.582 16.196,0 26.993,-8.664 26.993,-27.699"
         style="fill:#ffffff;fill-opacity:1;fill-rule:nonzero;stroke:none"
         id="path46" /><path
         d="m 907.258,271.703 v -43.89 h -8.797 v 43.468 c 0,17.043 -6.965,22.586 -18.477,22.586 -11.222,0 -21.015,-8.101 -21.015,-23.301 v -42.753 h -8.813 v 72.164 h 8.664 v -9.805 h 0.285 c 4.403,6.82 12.5,11.367 22.442,11.367 16.617,0 25.711,-9.945 25.711,-29.836"
         style="fill:#ffffff;fill-opacity:1;fill-rule:nonzero;stroke:none"
         id="path48" /><path
         d="m 930.102,227.813 v 72.164 h 8.804 v -72.164 z m 0,88.64 v 12.5 h 8.804 v -12.5 h -8.804"
         style="fill:#ffffff;fill-opacity:1;fill-rule:nonzero;stroke:none"
         id="path50" /><path
         d="m 1010.49,277.105 h -8.81 c 0,10.938 -6.817,17.047 -18.321,17.047 -9.949,0 -16.336,-4.687 -16.336,-11.933 0,-8.813 5.684,-9.949 18.184,-12.934 13.496,-3.125 27.413,-5.965 27.413,-22.297 0,-12.504 -10.51,-21.019 -26.991,-21.019 -18.188,0 -28.84,9.367 -29.121,26.133 h 8.953 c 0,-11.793 7.383,-18.469 20.168,-18.469 10.801,0 18.181,5.113 18.181,12.781 0,9.524 -6.247,11.227 -21.447,14.777 -12.078,2.84 -24.148,5.254 -24.148,20.313 0,12.219 10.371,20.316 25.144,20.316 17.041,0 26.981,-8.949 27.131,-24.715"
         style="fill:#ffffff;fill-opacity:1;fill-rule:nonzero;stroke:none"
         id="path52" /><path
         d="m 1039.58,290.313 c 4.97,7.671 13.5,11.226 22.3,11.226 16.62,0 25.71,-9.945 25.71,-29.836 v -43.89 h -8.8 v 43.468 c 0,17.043 -6.96,22.586 -18.48,22.586 -11.22,0 -21.01,-8.101 -21.01,-23.301 v -42.753 h -8.81 v 101.14 h 8.81 v -38.64 h 0.28"
         style="fill:#ffffff;fill-opacity:1;fill-rule:nonzero;stroke:none"
         id="path54" /><path
         d="m 1154.88,320.57 v -36.648 h 51 v -8.387 h -51 v -39.344 h 55.41 v -8.378 h -64.64 v 101.14 h 62.94 v -8.383 h -53.71"
         style="fill:#ffffff;fill-opacity:1;fill-rule:nonzero;stroke:none"
         id="path56" /><path
         d="m 1284.69,271.703 v -43.89 h -8.81 v 43.468 c 0,17.043 -6.96,22.586 -18.47,22.586 -11.22,0 -21.02,-8.101 -21.02,-23.301 v -42.753 h -8.81 v 72.164 h 8.66 v -9.805 h 0.3 c 4.4,6.82 12.5,11.367 22.44,11.367 16.62,0 25.71,-9.945 25.71,-29.836"
         style="fill:#ffffff;fill-opacity:1;fill-rule:nonzero;stroke:none"
         id="path58" /><path
         d="m 1311.08,269.43 h 46.45 c -0.99,16.054 -10.23,24.863 -23.16,24.863 -13.21,0 -22.44,-9.375 -23.29,-24.863 z m 45.31,-20.172 h 9.09 c -2.27,-12.36 -12.35,-23.289 -30.54,-23.289 -20.6,0 -32.96,15.336 -32.96,39.203 0,21.308 12.07,36.648 32.39,36.648 16.2,0 27.42,-9.804 30.54,-25.711 0.85,-3.839 1.14,-8.668 1.14,-13.921 h -55.12 c 0.43,-19.18 10.65,-28.696 24.01,-28.696 11.79,0 19.32,6.531 21.45,15.766"
         style="fill:#ffffff;fill-opacity:1;fill-rule:nonzero;stroke:none"
         id="path60" /><path
         d="m 1419.86,300.117 v -8.383 c -1.14,0.141 -2.98,0.282 -4.55,0.282 -14.34,0 -22.44,-9.375 -22.44,-26.137 v -38.066 h -8.81 v 72.164 h 8.67 v -11.368 h 0.28 c 4.83,7.813 12.5,11.934 22.02,11.934 1.56,0 3.41,-0.141 4.83,-0.426"
         style="fill:#ffffff;fill-opacity:1;fill-rule:nonzero;stroke:none"
         id="path62" /><path
         d="m 1433.62,265.172 c 0,-17.617 8.52,-29.125 22.02,-29.125 14.06,0 22.58,11.082 22.58,29.125 0,18.043 -8.52,29.121 -22.58,29.121 -13.5,0 -22.02,-11.512 -22.02,-29.121 z m 43.89,24.008 h 0.28 v 10.797 h 8.81 v -67.766 c 0,-20.883 -10.5,-31.676 -30.25,-31.676 -17.9,0 -28.84,8.528 -28.98,22.727 h 8.95 c 0.28,-9.793 7.95,-15.34 20.03,-15.34 14.63,0 21.44,7.812 21.44,24.715 v 8.523 h -0.28 c -4.82,-8.097 -12.78,-12.644 -22.16,-12.644 -18.89,0 -30.96,14.492 -30.96,36.656 0,22.156 12.07,36.648 30.96,36.648 9.53,0 17.34,-4.402 22.16,-12.64"
         style="fill:#ffffff;fill-opacity:1;fill-rule:nonzero;stroke:none"
         id="path64" /><path
         d="m 1531.9,224.406 c -7.53,-18.761 -13.79,-23.449 -27.86,-23.449 -1.84,0 -3.69,0.148 -5.25,0.574 v 7.817 c 1.56,-0.43 3.41,-0.578 5.12,-0.578 10.51,0 14.06,3.418 20.03,19.043 l -28.41,72.164 h 9.51 l 23.44,-60.95 h 0.28 l 23.45,60.95 h 9.51 l -29.82,-75.571"
         style="fill:#ffffff;fill-opacity:1;fill-rule:nonzero;stroke:none"
         id="path66" /><path
         d="m 725.5,122.52 c -5.543,14.347 -10.652,27.414 -16.195,41.906 h -0.285 c -5.54,-14.492 -10.512,-27.559 -16.196,-41.906 l -4.117,-10.516 H 729.48 Z M 685.438,103.488 672.797,70.8125 h -9.942 L 702.91,171.953 h 12.645 L 755.477,70.8125 h -9.95 l -12.64,32.6755 h -47.449"
         style="fill:#ffffff;fill-opacity:1;fill-rule:nonzero;stroke:none"
         id="path68" /><path
         d="m 771.484,108.176 c 0,-17.6174 8.528,-29.133 22.024,-29.133 14.062,0 22.59,11.0859 22.59,29.133 0,18.035 -8.528,29.121 -22.59,29.121 -13.496,0 -22.024,-11.516 -22.024,-29.121 z m 43.899,24.004 h 0.281 v 10.8 h 8.813 V 75.2148 c 0,-20.8906 -10.516,-31.6796 -30.262,-31.6796 -17.899,0 -28.836,8.5273 -28.981,22.7265 h 8.954 c 0.281,-9.7969 7.953,-15.3437 20.027,-15.3437 14.637,0 21.449,7.8125 21.449,24.7187 v 8.5235 h -0.281 c -4.828,-8.0938 -12.781,-12.6446 -22.156,-12.6446 -18.899,0 -30.973,14.4922 -30.973,36.6604 0,22.156 12.074,36.648 30.973,36.648 9.515,0 17.328,-4.402 22.156,-12.644"
         style="fill:#ffffff;fill-opacity:1;fill-rule:nonzero;stroke:none"
         id="path70" /><path
         d="m 851.574,112.434 h 46.453 c -0.996,16.054 -10.23,24.863 -23.164,24.863 -13.203,0 -22.437,-9.375 -23.289,-24.863 z m 45.313,-20.1762 h 9.093 c -2.265,-12.3555 -12.355,-23.293 -30.539,-23.293 -20.605,0 -32.957,15.3438 -32.957,39.2112 0,21.308 12.071,36.648 32.379,36.648 16.203,0 27.422,-9.804 30.547,-25.711 0.852,-3.84 1.137,-8.672 1.137,-13.925 H 851.43 c 0.429,-19.1802 10.652,-28.6958 24.011,-28.6958 11.789,0 19.317,6.5351 21.446,15.7656"
         style="fill:#ffffff;fill-opacity:1;fill-rule:nonzero;stroke:none"
         id="path72" /><path
         d="M 981.66,114.707 V 70.8125 h -8.797 v 43.4645 c 0,17.051 -6.965,22.59 -18.476,22.59 -11.223,0 -21.016,-8.097 -21.016,-23.301 V 70.8125 h -8.808 V 142.98 h 8.664 v -9.804 h 0.281 c 4.402,6.816 12.5,11.367 22.441,11.367 16.621,0 25.711,-9.953 25.711,-29.836"
         style="fill:#ffffff;fill-opacity:1;fill-rule:nonzero;stroke:none"
         id="path74" /><path
         d="m 1060.9,118.117 h -9.24 c -0.85,11.082 -8.94,19.031 -20.03,19.031 -14.49,0 -23.15,-11.503 -23.15,-30.253 0,-18.8989 8.66,-30.2622 23.15,-30.2622 11.09,0 19.04,9.0899 20.03,19.8906 h 9.24 c -1.28,-15.625 -12.5,-27.5586 -29.27,-27.5586 -20.17,0 -32.673,14.3477 -32.673,37.9302 0,23.574 12.503,37.929 32.673,37.929 16.34,0 27.99,-10.937 29.27,-26.707"
         style="fill:#ffffff;fill-opacity:1;fill-rule:nonzero;stroke:none"
         id="path76" /><path
         d="m 1101.51,67.4023 c -7.53,-18.7578 -13.79,-23.4492 -27.86,-23.4492 -1.84,0 -3.69,0.1485 -5.25,0.5782 v 7.8125 c 1.56,-0.4297 3.41,-0.5743 5.12,-0.5743 10.51,0 14.06,3.418 20.03,19.043 l -28.41,72.1675 h 9.51 l 23.44,-60.9487 h 0.28 l 23.45,60.9487 h 9.51 l -29.82,-75.5777"
         style="fill:#ffffff;fill-opacity:1;fill-rule:nonzero;stroke:none"
         id="path78" /></g></g></svg>
