<svg xmlns="http://www.w3.org/2000/svg" xmlns:xlink="http://www.w3.org/1999/xlink" version="1.1" id="Layer_1" x="0px" y="0px" viewBox="0 0 199 94" style="enable-background:new 0 0 199 94;" xml:space="preserve">
<style type="text/css">
	.st0{fill:#ffffff;}
	.st1{fill:#ffffff;}
</style>
<g>
	<path class="st0" d="M73.7,56.3v3.4h3.8v1.9h-3.8v5.7h-3.1v-13H78v1.9H73.7z" fill="#ffffff"/>
	<path class="st0" d="M85.6,59c-0.8-0.3-1.9-0.3-2.5,0v8.4h-3v-9.7c1.1-0.5,2.5-0.8,4.7-0.8c0.5,0,1.1,0,1.4,0.1L85.6,59z" fill="#ffffff"/>
	<path class="st0" d="M94.1,61.3l-4.3,0.6c-0.1-2.2,0.9-3.3,2.3-3.3C93.3,58.6,94.1,59.5,94.1,61.3z M96.9,62.4   c0-3.4-1.6-5.4-4.8-5.4c-3.2,0-5.1,2.1-5.1,5.3c0,3.3,2,5.4,5.5,5.4c1.9,0,3.2-0.4,4-0.8l-0.6-1.8c-0.6,0.3-1.7,0.6-3.1,0.6   c-1.7,0-2.7-0.8-2.9-2.4L96.9,62.4z" fill="#ffffff"/>
	<path class="st0" d="M105.5,65.6c-0.3,0.1-0.7,0.2-1.2,0.2c-1.8,0-2.5-1.3-2.5-3.6c0-2.1,0.8-3.6,2.6-3.6c0.4,0,0.8,0,1.1,0.1V65.6   z M108.5,66.9V52.6h-3v4.6c-0.4-0.1-1-0.2-1.8-0.2c-3,0-5,2.1-5,5.4c0,3.5,2,5.3,5.5,5.3C106.1,67.6,107.5,67.3,108.5,66.9z" fill="#ffffff"/>
	<path class="st0" d="M117.9,61.3l-4.3,0.6c-0.1-2.2,0.9-3.3,2.3-3.3C117.1,58.6,117.9,59.5,117.9,61.3z M120.7,62.4   c0-3.4-1.6-5.4-4.8-5.4c-3.2,0-5.1,2.1-5.1,5.3c0,3.3,2,5.4,5.5,5.4c1.9,0,3.2-0.4,4-0.8l-0.6-1.8c-0.6,0.3-1.7,0.6-3.1,0.6   c-1.7,0-2.7-0.8-2.9-2.4L120.7,62.4z" fill="#ffffff"/>
	<path class="st0" d="M128.7,59c-0.8-0.3-1.9-0.3-2.5,0v8.4h-3v-9.7c1.1-0.5,2.5-0.8,4.7-0.8c0.5,0,1.1,0,1.4,0.1L128.7,59z" fill="#ffffff"/>
	<path class="st0" d="M132.4,55.7c-0.9,0-1.7-0.6-1.7-1.4c0-0.8,0.7-1.4,1.7-1.4c0.9,0,1.7,0.6,1.7,1.4   C134,55.1,133.3,55.7,132.4,55.7z M130.9,67.4V57.2h3v10.2H130.9z" fill="#ffffff"/>
	<path class="st0" d="M144.1,67.4l-3.6-5.4h0v5.4h-3V52.6h3v9h0l3.5-4.4h3.1l-3.8,4.4l4.3,5.8H144.1z" fill="#ffffff"/>
	<path class="st0" d="M152,67.6c-1.4,0-2.7-0.4-3.4-0.8l0.8-1.8c0.4,0.3,1.3,0.6,2.2,0.6c0.9,0,1.6-0.6,1.6-1.2c0-2-4.2-1.2-4.2-4.3   c0-1.7,1.5-3.1,3.8-3.1c1.4,0,2.4,0.3,3.3,0.8l-0.7,1.6c-0.3-0.2-1-0.5-1.8-0.5c-0.9,0-1.5,0.5-1.5,1.1c0,1.9,4.4,1.2,4.4,4.4   C156.3,66.1,154.6,67.6,152,67.6z" fill="#ffffff"/>
	<path class="st0" d="M165.4,62.2c0,2.2-0.8,3.7-2.5,3.7c-0.5,0-0.9-0.1-1.2-0.2v-6.8c0.4-0.2,0.8-0.2,1.4-0.2   C164.7,58.6,165.4,60.1,165.4,62.2z M168.4,62c0-3-1.9-5-4.5-5c-1,0-1.7,0.2-2.2,0.4v-4.8h-3v14.3c0.8,0.4,2.1,0.8,4,0.8   C166.4,67.6,168.4,65.5,168.4,62z" fill="#ffffff"/>
	<path class="st0" d="M177.2,61.3l-4.3,0.6c-0.1-2.2,0.9-3.3,2.3-3.3C176.4,58.6,177.2,59.5,177.2,61.3z M180.1,62.4   c0-3.4-1.6-5.4-4.8-5.4c-3.2,0-5.1,2.1-5.1,5.3c0,3.3,2,5.4,5.5,5.4c1.9,0,3.2-0.4,4-0.8l-0.6-1.8c-0.6,0.3-1.7,0.6-3.1,0.6   c-1.7,0-2.7-0.8-2.9-2.4L180.1,62.4z" fill="#ffffff"/>
	<path class="st0" d="M187.7,59c-0.8-0.3-1.9-0.3-2.5,0v8.4h-3v-9.7c1.1-0.5,2.5-0.8,4.7-0.8c0.5,0,1.1,0,1.4,0.1L187.7,59z" fill="#ffffff"/>
	<path class="st0" d="M195.4,65.6c-0.3,0.2-0.8,0.2-1.3,0.2c-1.6,0-2.5-1.1-2.5-3.5c0-2.4,0.8-3.8,2.5-3.8c0.6,0,0.9,0.1,1.2,0.2   V65.6z M198.4,67.5v-9.8c-0.8-0.4-2.3-0.8-4-0.8c-3.8,0-5.8,2.2-5.8,5.6c0,3.1,1.9,5,4.7,5c1,0,1.7-0.2,2.1-0.3v0.6   c0,1.2-0.7,2-2.5,2c-1.1,0-2.4-0.3-3-0.6l-0.8,1.8c0.9,0.4,2.4,0.8,4.3,0.8C196.2,71.7,198.4,70.3,198.4,67.5z" fill="#ffffff"/>
	<path class="st0" d="M53,77.3V82h4.6V83H53v6.2h-1.6v-13h6.7v1.1H53z" fill="#ffffff"/>
	<path class="st0" d="M66.7,84.1c0,2.1-0.7,4.2-3,4.2c-2.2,0-3-2.1-3-4.2c0-2.1,0.7-4.3,3-4.3C66,79.8,66.7,82,66.7,84.1z    M68.2,84.1c0-3-1.4-5.3-4.5-5.3c-3.1,0-4.5,2.3-4.5,5.3c0,3,1.4,5.3,4.5,5.3C66.8,89.4,68.2,87.1,68.2,84.1z" fill="#ffffff"/>
	<path class="st0" d="M75.6,80c-1-0.2-2.4-0.2-3,0.2v9H71v-9.7c1.1-0.5,2.2-0.7,4.2-0.7c0.3,0,0.6,0,0.8,0L75.6,80z" fill="#ffffff"/>
	<path class="st0" d="M80.4,89.4c-1.2,0-2.4-0.3-3-0.7l0.5-1c0.4,0.3,1.3,0.6,2.4,0.6c1.4,0,2.5-0.8,2.5-1.9c0-2.7-4.9-1.4-4.9-4.9   c0-1.4,1.3-2.8,3.5-2.8c1.2,0,2.1,0.3,2.7,0.7l-0.4,0.9c-0.3-0.2-1.1-0.6-2-0.6c-1.3,0-2.2,0.8-2.2,1.7c0,2.5,5,1.4,5,4.9   C84.3,87.9,82.7,89.4,80.4,89.4z" fill="#ffffff"/>
	<path class="st0" d="M89.8,93.2h-1.7l1.9-4L86.1,79h1.7l2.5,7.5c0.2,0.7,0.4,1.4,0.4,1.4h0c0,0,0.2-0.7,0.4-1.4l2.6-7.5h1.4   L89.8,93.2z" fill="#ffffff"/>
	<path class="st0" d="M104,89.2v-7.4c0-1.5-1.4-2.1-2.9-2.1c-0.8,0-1.6,0.2-2.1,0.4v9h-1.5v-9.7c0.9-0.4,2.4-0.7,3.8-0.7   c2.3,0,4.2,0.8,4.2,3v7.4H104z" fill="#ffffff"/>
	<path class="st0" d="M110,77.1c-0.5,0-1-0.4-1-0.9c0-0.5,0.4-0.9,1-0.9c0.5,0,1,0.4,1,0.9C111,76.7,110.6,77.1,110,77.1z    M109.3,89.2V79h1.5v10.2H109.3z" fill="#ffffff"/>
	<path class="st0" d="M121.2,89.2v-7.4c0-1.5-1.4-2.1-2.9-2.1c-0.8,0-1.6,0.2-2.1,0.4v9h-1.5v-9.7c0.9-0.4,2.4-0.7,3.8-0.7   c2.3,0,4.2,0.8,4.2,3v7.4H121.2z" fill="#ffffff"/>
	<path class="st0" d="M132.4,88c-0.4,0.2-1.3,0.4-2,0.4c-2.2,0-3.4-1.5-3.4-4.2c0-2.7,1.2-4.5,3.5-4.5c0.9,0,1.4,0.2,1.9,0.4V88z    M133.9,89.5v-10c-0.6-0.4-1.9-0.7-3.3-0.7c-3.4,0-5.1,2.3-5.1,5.5c0,3.1,1.7,5.1,4.5,5.1c1,0,2-0.2,2.5-0.5v0.7   c0,1.6-0.9,2.7-3.1,2.7c-1.1,0-2.4-0.3-3-0.6l-0.4,1c0.7,0.3,2.1,0.7,3.6,0.7C132.2,93.5,133.9,92,133.9,89.5z" fill="#ffffff"/>
</g>
<path class="st1" d="M60.4,28.5C52.5,6.9,32.9,2,30.1,1.4c-1.1-0.3-1.9-0.4-2.6-0.6c-0.6-0.1-0.8,0-0.9,0.3  c-0.1,0.2,0.2,0.5,0.7,0.7c3.3,1.1,10.9,3.9,18.8,11.4c8.5,8.1,11.6,17.8,11.5,26.3C57.5,52.7,49,63.2,38.6,66.2  c-12.6,3.7-22.9-2.2-26.9-9.4C7.5,49.3,9.6,39,16.8,35.5c6.8-3.3,10.6,0.2,11.2,0.7c1.5,1.7,2.4,4.1,0.3,6.4c-1,1.1-0.9,2.4-0.5,3.1  c0.7,1.3,3.5,2.2,5.6,0.2c2-1.9,2.7-4.5,2.7-6.2c-0.1-8.2-8.4-11.2-12-11.7c-3.3-0.4-11-0.7-17.2,5.7c-6.6,6.9-7.9,16.4-3.8,25.2  C7.4,68.1,18.4,74,28.9,74.1c9.5,0.1,19.1-3.4,26.3-12.5C63.2,51.5,64,38.5,60.4,28.5z" fill="#ffffff"/>
<path class="st0" d="M37.8,26.9c-0.3,0.3,0.2,0.9,0.4,1.1c0.3,0.4,1.1,1.4,1.1,1.4c4.6,5.6,6.9,17.1-0.5,24.1  c-2.2,2.1-5.5,3.2-8.5,2.9c-1.9-0.2-4.5-0.9-6.4-3.6c-0.6-0.8-1.8-3.1,0.1-5.4c0,0,0.9-1,0.9-2.2c0-2-2.1-2.4-2.9-2.4  c-2,0-3.3,1-4.2,2.2c-0.8,1-1.4,2.4-1.6,4.5c-0.4,5.1,3.5,10,8.9,11.6c2.8,0.8,5.5,0.9,8.5,0.2c2.1-0.5,7.2-2.3,10.7-7.9  C49,45.9,48.1,34,39,27.3l0,0C38.6,27.1,38.1,26.6,37.8,26.9z" fill="#ffffff"/>
</svg>